<svg width="57" height="38" viewBox="0 0 57 38" fill="none" xmlns="http://www.w3.org/2000/svg">
<path fill-rule="evenodd" clip-rule="evenodd" d="M35.0992 0.989686L34.7688 0.875L34.6772 0.880416L34.6708 1.03936L34.5646 1.01587L34.3624 1.22358L34.3368 1.10347L34.1345 1.3762L33.8626 1.50985L33.7894 1.36987L33.6485 1.3464L33.5825 1.43941L33.3968 1.40509L33.2275 1.4945L32.7579 1.11702L32.5666 1.17482L32.195 1.06374L32.1557 1.17572L32.2866 1.50082L32.1273 1.5243L32.0614 1.63357L32.1327 1.78709L32.0678 1.97673L32.1932 2.00473L31.8408 2.29371L31.5131 2.38311L31.3475 2.56191L30.9658 2.468L30.7928 2.51045L30.9255 2.34879L30.6437 2.18714L30.4871 2.24584L30.3782 2.17269L30.1943 2.25849L30.0404 2.16367L29.4089 2.14109L29.354 2.03272L29.1261 2.07245L29.15 2.13296L28.9604 2.21153L28.8763 2.47251L28.7435 2.52308L28.3939 2.22688L27.9143 2.34789L27.8008 2.29009L27.6891 2.62513L27.7431 2.75969L27.6498 2.71002L27.6104 2.88431L27.3651 2.98726L27.4109 3.12272L27.3413 3.2374L27.1729 3.21663L27.0128 3.54174L26.8782 3.60043L26.8929 3.84968L26.761 3.87948L26.8709 3.91831L26.793 4.14498L26.6073 4.18381L26.6274 4.40055L26.4608 4.36352L26.5166 4.42584L26.4343 4.57214L26.5826 4.67329L26.438 4.71748L26.5761 4.80419L26.4975 4.88364L26.5551 4.99021L26.6622 4.96405L26.621 5.14019L26.7858 5.3578L26.6586 5.43541L26.6723 5.54383L26.7739 5.55284L26.8855 5.78226L26.8728 5.97818L26.6961 6.1019L26.7867 6.14163L26.7592 6.23919L26.5279 6.35373L26.4283 6.26264L26.2625 6.29965L26.29 6.13716L26.107 6.1236L25.8901 5.90774L25.9432 5.56911L25.3959 5.14106L25.3574 5.24939L25.2485 5.16005L25.2229 5.25481L24.9043 5.17449L24.7487 5.33697L24.5309 5.27196L24.4769 5.46254L24.249 5.39297L24.2133 5.47969L24.0632 5.40208L24.0604 5.12207L23.9735 5.05076L23.8271 5.1835L23.7154 5.17352L23.5607 5.37854L23.4261 5.29279L23.3081 5.691L23.0289 5.62511L22.8688 5.75514L22.9786 5.78314L22.9787 5.78489L22.8689 5.75601L22.749 5.78673L22.6968 5.41651L22.5842 5.38125L22.5202 5.21421L22.5384 4.86832L22.4085 4.83761L22.2704 4.4457L22.0873 4.45384L21.7514 4.83131L21.4713 4.76087L21.2113 4.89904L21.0191 5.25665L21.0814 5.42727L20.9917 5.60612L20.9441 5.35684L20.7775 5.44897L20.686 4.89545L20.6173 4.89633L20.7016 4.8566L20.3867 4.84759L20.1204 4.73559L19.7643 5.00106L19.7322 4.8286L19.5391 4.58841L19.4613 4.59917L19.4623 4.29939L19.1996 4.47545L18.9717 4.8132L18.4784 4.90805L18.59 4.73375L18.4143 4.8132L18.3924 4.62359L18.2028 4.55499L18.1049 4.62271L18.1937 4.9875L18.0409 5.03991L17.9182 5.31536L17.6191 5.11499V5.1149L17.7921 4.88189L17.8022 4.68685L17.4882 4.6823L17.1679 4.52874L17.1248 4.76901L16.9656 4.60373L16.8841 4.68317L16.6828 4.62184L16.3204 4.69228L16.4119 4.44028L16.2105 4.39154L16.1894 3.85419L15.5414 3.87948L15.3986 4.04294L15.0893 3.89212L14.9246 3.93637L14.7973 3.83703L14.7881 3.7079L14.6033 3.60043L14.2985 3.58057L14.1447 3.73499L13.9242 3.72686L13.6935 3.55077L13.6843 3.35119L13.0519 3.41531L12.4927 3.06853L12.2611 3.15703L11.9371 3.11007L11.9197 3.01615L11.7843 2.98093L11.7861 3.1191L11.1998 3.10557L11.0103 3.03332L10.9555 3.12182L10.6452 3.13176L10.1784 2.89516L10.0713 2.93308L9.66309 2.97643L9.25761 3.24554L9.11394 3.1751L8.88232 3.24464L8.82283 3.16607L8.61598 3.31146L8.21785 3.21664L7.46456 3.31598L7.31354 3.42615L7.18089 3.71152L7.25133 3.9698L6.64451 4.37885L6.25829 4.79789L5.90129 4.74644L5.99561 4.54685L5.62488 4.50984L5.58918 4.37436L5.2698 4.4394L5.05105 4.58474L5.22588 4.79159L5.14345 4.93964L5.26612 5.16548L5.08395 5.13564L5.09042 5.20879L5.24504 5.27835L5.18282 5.45711L5.34662 5.58985L5.29176 5.83643L5.14529 6.00976L5.17276 6.21031H5.33114L5.46379 6.5905L5.86839 6.89657L5.82989 7.14499L5.99098 7.27046L6.06876 7.55764L6.002 7.57575L6.13658 7.67681L6.17954 7.86468L6.43679 8.15185L6.72414 8.26385L6.60059 8.40385L6.28296 8.39571L6.1539 8.52758L6.17315 8.71535L6.3443 8.7605L6.32689 8.9628L6.49436 8.98091L6.46881 9.17954L6.5438 9.26083H6.54327L6.5305 9.83876L6.26231 10.4637L5.4175 10.5811L5.29211 10.8484L4.0364 11.9339L2.0603 14.6395L2.23695 14.8101L2.38799 15.4278L2.36786 15.9606L2.29095 16.0401L2.38982 16.1115L2.26811 16.2992L2.30373 16.3481L2.4173 16.2641L2.36602 16.3751L2.5216 16.3797L2.64611 16.5937L2.83187 16.665L2.75593 16.8041L2.80536 16.9332L2.80563 16.9333L2.83301 17.0759L2.6994 17.103L2.46052 16.8664L2.11087 16.889L2.01385 16.7417L1.84819 16.6848L1.7649 17.0849L1.55622 17.1517L1.38873 17.4443L1.37591 17.6467L1.25785 17.7622L1.27249 18.0422L1.14527 18.2192L1.19469 18.351L1.12604 18.5786L0.639125 18.9524L0.5 19.7219L0.521053 19.8745L0.712345 19.7679L0.889909 19.8438L0.81577 19.9567L1.05557 20.1057L1.03818 20.2294L1.24869 20.6376L1.31093 20.5716L1.62304 20.5789L1.83721 20.8163L1.90037 21.2218L2.1484 21.2977L2.35343 21.1685L2.63071 21.1839L2.80282 21.4756L2.6637 21.7664L2.8513 21.9217L3.01239 21.8711L2.95018 21.6327L3.21924 21.7637L3.45636 21.6914L3.52409 21.3184L3.68789 21.1695L3.7648 21.2724L3.99633 21.2634L4.03841 21.4684L4.21052 21.546L4.1995 21.6264L4.70472 21.8657L4.80999 21.6291L5.23559 21.7907L5.58253 21.7429L5.85246 22.0256L6.2946 21.8684L6.61398 22.105L6.863 22.0906L6.97553 22.1854L7.27302 22.0526L7.34985 22.1041L7.61532 21.853L7.84869 21.9397L8.018 21.8621L8.05466 21.6237L8.20936 21.4918L7.82672 20.9906L7.9613 20.717H7.96139L7.82681 20.9906L8.20936 21.4918L8.05475 21.6237L8.01809 21.8621L8.2112 21.9461L8.45288 22.4401L8.83175 22.5358L9.00474 22.9702L9.12374 22.9557L9.48888 22.963L9.53648 22.8654L9.72775 22.8293L10.0838 22.2062L10.3373 22.105L11.3715 21.9452L11.7661 21.9939L12.0315 21.8549L13.0373 21.7411L13.127 21.4801L13.3165 21.3401L13.4968 20.8778L13.8199 20.8308L13.9187 20.7134L14.2354 20.7143L14.2812 20.5924L14.3864 20.6222L14.3855 20.4641L14.6263 20.2185L14.5869 20.0939L14.7608 20.2863L14.9869 20.3739L15.0098 20.1445L14.8331 20.0975L14.7159 19.8429L14.802 19.8935L14.8789 19.8032L15.1809 19.7986L15.3338 20.0515L15.5406 20.0785L15.569 19.9792L15.7118 19.9747L15.6102 19.7824L15.817 19.7282L15.99 20.0064L16.1602 19.916L16.4394 20.0172L16.552 19.6902L16.6975 19.6912L16.7616 19.8365L16.9391 19.8356L17.0224 19.6469L17.2129 19.5656L17.0453 19.3932L16.963 18.9705L16.7167 18.8296L16.5548 18.9714L16.5542 18.9712L16.716 18.8296L16.8469 18.5208L16.7663 18.2002L16.8863 18.0638L16.7764 17.5527L16.8542 17.2519L16.7435 17.0759L16.922 16.7941L17.1114 16.786L17.0922 16.5458H17.0936L17.1128 16.786L16.9233 16.7941L16.7449 17.0759L16.8556 17.2519L16.7778 17.5527L16.8876 18.0638L16.7677 18.2002L16.8483 18.5208L16.7174 18.8296L16.9636 18.9705L17.046 19.3932L17.2135 19.5656L17.4084 19.4645L17.392 19.6026L17.5485 19.6912L17.9933 19.6722L18.2614 19.8655L18.3347 20.0668L18.5095 20.2086L18.9058 20.28L18.9443 20.652L19.1713 20.5292L19.3031 20.7847L19.7561 20.5915L19.8028 20.7956L19.6142 21.0819L19.7524 21.0963L19.8467 20.9229L19.9904 20.9329L19.9694 21.1586L20.103 21.3817L20.2119 21.416L20.2247 21.0268L20.4179 20.9157L20.7721 21.0494L20.8013 21.1405L21.2672 21.1451L21.2882 21.3455L21.2903 21.3472L21.2614 21.5577L21.5222 21.9L21.655 21.8079L21.9634 21.9776L22.0073 21.854L22.0687 21.8964L22.0495 21.7989L22.3057 21.7492L22.389 22.2386L22.6224 22.2125L22.3844 22.5014L22.4476 22.6405L22.6114 22.609L22.4009 22.9837L22.4769 23.1508L22.4019 23.344L22.4824 23.3404L22.3305 23.6519L22.1163 23.7305L22.2316 23.94L22.3479 23.9174L22.3442 24.0908L22.2535 24.1667L22.357 24.1252L22.3524 24.322L22.5125 24.1595L22.5281 24.3626L22.746 24.2163L22.8073 24.5622L22.9693 24.518L22.9958 24.8747L23.0938 24.9253L23.2594 24.8494L23.2705 24.6326L23.5377 24.5613L23.6182 25.0688L23.4727 25.1059L23.5633 25.6152L23.2988 25.6802L23.4096 25.8988L23.4571 25.8031L23.6604 25.7859L23.7061 26.027L23.6292 26.0595L23.6118 26.3937L23.491 26.4162L23.5386 26.4903L23.7427 26.4334L23.772 26.5797L23.9953 26.54L24.0932 26.8515L24.4987 26.7386L24.5656 27.0285L24.7587 26.9734L24.7889 27.0448L24.6608 27.0926L24.7779 27.331L24.7019 28.1889L24.4731 28.2449L24.6662 28.4742L24.82 28.4084L24.8273 28.5429L24.9289 28.5862L24.841 28.6269L24.9317 28.7064L25.0579 28.7045L25.0991 28.7877L25.155 28.7154L25.2731 28.8454L25.3427 28.7633L25.3573 28.8364L25.144 28.9764L25.0452 28.896L24.8136 28.9692L24.6626 28.887L24.5015 29.0134L24.5061 29.1028L24.2681 28.9601L24.312 28.9087L24.0557 28.5791L24.0365 28.748L23.8123 28.7416L23.8507 29.0649L23.6347 29.0956L23.5523 29.0667L23.5029 28.8211L23.2512 28.7208L23.3217 28.6341L23.1624 28.4761L22.9638 28.6883L22.9913 28.784L22.8394 28.4382L22.7222 28.608L22.7624 28.8346L22.5804 28.8734L22.5025 28.9999L22.3991 28.9647L22.5181 28.8228L22.4412 28.6161L22.5501 28.5204L22.4888 28.1962L22.2664 28.2612L22.2609 28.3885L21.7255 28.5068L21.8408 28.6188L21.546 28.6404L21.7456 29.1976L21.611 29.5146L21.958 29.7982L21.6055 30.2316L21.7776 30.4456L21.6971 30.6416L21.0628 30.7825L21.0088 30.9839L21.093 31.3857L20.8312 31.4598L20.8596 31.616L20.4779 31.6576L20.4963 31.8355L20.3416 31.8147L20.2583 31.8987L20.1549 32.1172L20.2675 32.1191L20.3562 32.4911L20.1814 32.5317L20.2519 32.8379L19.9993 32.8993L19.9837 32.7114L19.613 32.641L19.4217 32.8153L19.3211 32.9887L19.5288 33.0736L19.537 33.2849L19.7311 33.61L20.4029 33.9297L20.8844 34.0336L21.1122 33.9577L20.9868 33.7834L21.1378 33.7093L21.1287 33.5567L21.5753 33.7951L21.6522 33.573L22.5007 33.1286L23.081 33.0835L23.6109 33.3355L23.826 33.6651L23.8507 34.0805L23.9707 34.0886L24.0575 34.0182L24.1299 32.9986L23.8572 33.0339L23.8086 32.9318L23.761 33.0473L23.6338 32.9246L23.7216 32.7765L25.5311 31.2557L26.3448 30.3084L26.969 29.2275L27.1832 29.0007L27.2519 28.7028L27.1164 28.4102L27.1869 28.253L28.5085 27.8882L28.5088 27.8874L29.0441 28.0066L29.0954 27.9072L29.4633 27.8936L29.6637 28.0083L29.8568 27.8033L30.4215 27.9677L30.6925 27.8593L30.7629 27.7464L31.0009 27.7654L31.3176 27.6317L31.2306 27.3672L31.7322 27.2471L31.713 27.0918L31.8265 27.0348L31.7505 26.9048L32.1322 27.1441L32.2154 27.1359L32.1926 26.9806L32.4928 26.9319L32.4931 26.9339L32.1941 26.9825L32.2169 27.1378L32.1336 27.1459L31.7519 26.9066L31.828 27.0366L31.7145 27.0935L31.7336 27.2489L31.2321 27.369L31.3191 27.6335L31.0023 27.7673L31.2184 27.9469L31.3703 27.9569L31.4802 28.1998L31.8151 28.0517L31.9671 28.1285L32.0238 28.4273L31.9103 28.4346L32.0064 28.4526L31.9423 28.5041L32.0494 28.5737L32.3094 28.4725L32.3734 28.5204L32.1227 28.6206L30.6097 28.3804L30.4532 28.5475L30.9091 28.7227L31.0948 28.6667L31.2431 28.9493L30.931 29.1426L30.4029 29.2374L30.3013 29.3521L30.3699 29.4903L30.6766 29.4695L30.7361 29.3467L30.8742 29.3765L30.9703 29.53L31.2889 29.5589L31.3319 29.6754L31.6513 29.8849L31.7913 29.8505V30.0131L31.6842 30.0565L32.5895 30.3356L32.7478 30.3716L32.9217 30.2254L33.4324 30.1197L34.1912 30.1775L34.2479 29.9698L34.5454 30.1116L34.8465 29.7016L34.7696 30.1802L34.8273 30.0764L35.0323 30.0737L35.1046 30.127L35.0268 30.312L35.1046 30.3247L35.1916 30.1675L35.4625 30.5279L35.5759 30.4439L35.7526 30.526L35.6931 30.3247L35.8909 30.3238L35.8167 30.136L35.9521 29.959L36.0554 30.0635L36.0548 30.0637L36.139 30.2913L36.052 30.424L36.0603 30.8909L36.4585 30.8719L36.5033 30.9704L36.2543 31.0634L36.2635 31.3478L36.0493 31.1365L35.8306 31.3767L35.6475 31.2937L35.534 31.4264L35.4608 31.3803L35.2329 31.5989L34.8897 31.7452L34.7066 31.6494L34.5785 31.8861L33.8737 32.2238L33.6 32.4478L33.6687 32.5037L33.6101 32.6022L33.4994 32.5643L32.8733 32.9173L32.5383 33.2867L32.6445 33.3806L32.5832 33.5017L33.0692 33.6425L33.3987 33.4212L33.8618 33.4375L34.9537 34.3632L35.35 34.15L35.5459 34.2422L35.8955 34.635L36.0227 35.0151L36.0292 35.5696L35.8663 35.6925L35.8525 35.8198L35.8539 35.8201L35.8457 36.4086L35.7341 36.5874L35.9794 36.6669L35.4943 36.7084L35.3232 36.796L35.6608 37.1564L36.0581 37.1961L36.1633 37.458L36.3363 37.4769L36.4334 37.625L36.8747 37.5511L37.1568 37.6024L37.6438 37.4534L37.7682 37.1744L38.0236 37.122L38.1975 36.9188L38.3255 36.9396L38.3311 36.7915L38.667 36.2451L39.1383 35.9733L39.5118 35.8108L40.0234 35.7918L40.244 35.6888L40.4435 35.7349L40.601 35.8929L40.7483 35.7602L40.8407 35.4469L41.0806 35.3547L41.151 35.1515L41.5345 35.222L41.4539 35.0494L41.6608 34.9447L41.5491 34.8897L41.5427 34.7794L41.8924 34.4949L42.1569 34.4399L42.4846 34.5401L42.7445 34.709L42.9477 35.0088L43.5481 34.8147L44.1586 34.914L44.2739 34.8074L44.6263 34.7794L44.8835 34.6097L44.7197 34.1013L44.8304 33.8701L44.7663 33.7851L45.0144 33.6361L44.9018 33.5631L44.9219 33.4664L45.3247 33.4962L45.4354 33.3246L45.288 33.1061L45.1589 33.1711L44.9201 33.0284L44.7187 33.0682L44.327 32.9183L43.7064 33.0592L43.6159 33.3147L43.3633 33.4005L43.0328 33.1829L42.9642 33.0609L43.0484 32.9823L42.9761 32.9508L42.664 33.3029L42.6951 33.3915L42.5743 33.5577L41.9528 33.7753L41.6004 33.5612L41.2893 33.2271L40.5579 32.2284L40.2149 31.5694L40.2155 31.5691L39.9216 30.778L39.8054 30.052L39.7158 30.0538L39.6874 30.3364L39.6031 30.1892L39.3249 30.2497L39.4439 30.2967L39.4375 30.4367L39.5949 30.6163L39.6444 30.4349L39.7597 30.4854L39.8448 30.8466L39.7853 31.3885L39.8814 31.4381L40.026 31.2684L40.1648 31.5946L40.1635 31.5953L40.362 32.0504L41.2901 33.321L41.6352 33.7048L41.7789 33.722L41.7679 33.8782L41.5062 33.8999L41.4467 34.0083L41.3761 33.9062L41.4348 33.7789L40.6193 33.4511L40.4344 33.1043L40.6879 32.9002L40.6146 32.5814L40.428 32.2265L40.2284 32.1163L40.2449 32.0242L40.0271 32.0965L39.9649 31.9113L39.8395 31.9926L39.7964 31.8842L39.9713 31.7443L39.4047 31.9412L39.3351 31.877L39.6784 31.5619L39.5841 31.4309L39.2912 31.532L39.3406 31.2873L39.5274 31.188L39.6024 31.2485L39.5877 31.1077L39.2921 31.2314L38.9479 31.5556L38.7219 31.6025L38.6825 31.5149L38.8372 31.5059L38.969 31.2567L39.1987 31.1491L39.2327 30.8719L38.9736 30.7066L39.0596 31.0209L38.9095 30.9929L38.7548 31.2097L38.7622 30.983L38.5141 30.7843L38.3494 30.4899L38.2221 30.5351L38.2899 30.5856L38.2469 30.7066L38.1224 30.6398L38.0876 30.4321L37.997 30.6805L37.9183 30.4493L37.5961 30.3517L37.5732 30.4393L37.76 30.5929L37.8286 30.5532L37.9311 30.8565L37.7169 30.9252L37.565 30.7365L37.6895 30.7915L37.8277 30.6498L37.5357 30.4556L37.5028 30.3274L37.3161 30.2064L37.079 30.2407L37.0415 30.294L37.2483 30.3797L37.0836 30.4077L36.6946 30.1946L36.8282 30.0375L36.7632 29.8875L36.6479 29.8777L36.7211 29.9951L36.6058 30.1242L36.1427 29.6428L36.1423 29.6429L36.1288 29.5905L36.4427 29.7711L36.3933 29.5869L36.5535 29.5236L36.7475 29.6763L36.8738 29.6139L36.9214 29.6871L37.0807 29.6754L37.3864 30.1305L37.4468 29.9499L37.52 30.1044L37.6234 30.0357L37.7177 30.1522L37.7488 30.0394L37.898 29.8795L37.7168 29.5209L37.6948 29.5002L37.7864 29.372L38.1644 29.9617L38.1744 30.1991L38.3108 29.9309L38.19 29.8045L38.1863 29.5146L38.3346 29.8054L38.4252 29.7828L38.7263 30.0402L38.914 30.0023L38.8627 29.8388L38.9387 29.7901L39.0805 29.9318L39.0164 30.2777L38.9415 30.0863L38.8124 30.1377L38.7739 30.2624L38.7043 30.1025L38.6037 30.2786L38.6311 30.424L38.5972 30.4493L38.5488 30.5197L38.7392 30.6516L38.7419 30.8575L38.838 30.6877L38.9387 30.7356L39.1299 30.5189L39.2444 30.2361L39.1958 29.8931L39.3716 29.8461L39.767 29.9463L39.8301 29.7566L40.026 29.5986L40.4562 29.5083L40.6622 29.3313L40.5733 29.3394V29.3392L40.6596 29.3313L40.991 28.9223L40.8418 28.4734L40.9296 28.4228L40.8985 28.5086L40.9992 28.6324L41.1841 28.7353L41.1658 29.0866L41.336 29.1859L41.4504 29.0749L41.0066 29.8334L40.4372 30.0375L40.3109 30.3039L40.8958 30.0185L41.7415 28.7254L42.1863 28.5131L42.6009 28.0706L43.0531 27.8106L43.5125 27.7067L44.0159 27.6931L44.1596 27.7771L44.2374 28.03L43.8009 28.5014L44.0562 28.356L44.6063 27.5306L45.3412 27.2199L45.6597 27.2091L45.9499 27.4204L45.9981 27.5252L45.9269 27.6583L45.7549 27.8593L45.8181 27.862L45.9269 27.6583L46.013 27.5577L45.9981 27.5252L46.2519 27.0502L46.7407 26.7486L46.6108 26.5454L46.9796 26.3151L46.824 26.1958L46.9301 26.0478L46.4973 25.8744L46.5796 25.8247L46.5448 25.6522L46.0899 25.3344L46.4277 25.3244L46.3141 24.7998L46.6611 24.8765L46.9164 24.7022L46.8753 24.5442L46.9649 24.5216L46.9664 24.5249L46.8826 24.546L46.9238 24.7041L46.6685 24.8783L46.3216 24.8015L46.4351 25.3263L46.0973 25.3362L46.5522 25.654L46.587 25.8265L46.5046 25.8762L46.9376 26.0496L46.8313 26.1977L46.987 26.3169L46.6181 26.5471L46.7481 26.7503L47.2789 26.4524L47.5352 26.6276L47.4748 26.8226L48.2171 25.8672L48.9978 25.8455L49.3154 25.7335L49.7401 25.8292L49.8398 25.7281L50.065 25.9466L50.1565 25.9313L50.3817 25.6026L50.367 25.1953L50.6746 25.0517L50.692 24.8648L50.3368 24.8539L50.3305 24.7691L50.5812 24.4756L50.5254 23.7857L50.5922 23.7802L50.6069 23.6375L50.7368 23.6357L50.7378 23.4587L51.0627 23.4497L51.0746 23.3359L51.5605 23.3323L51.5972 23.2194L51.7152 23.2185L51.7088 23.084L52.0393 23.1472L52.0932 22.5584L52.2122 22.5538L52.2342 22.3371L52.9693 22.3039L53.0024 22.3877L53.1909 22.4319L53.4848 22.3164L53.9332 22.2982L54.0202 22.4834L54.2142 22.3443L54.4284 22.5087L54.6692 22.4482L55.0215 22.5024L55.102 22.3101L55.1981 22.2892L55.2778 21.798L55.1451 21.5334L55.48 21.528L55.3318 21.4024L55.4279 21.3474L55.5588 20.8976L55.6429 20.8868L55.6603 20.67L55.8672 20.6882L55.9047 20.5536L55.7985 20.2646L55.5853 20.4741L55.5331 20.3387L55.3501 20.2962L55.3747 20.187L55.6713 20.1057L55.6558 19.9413L55.6 19.9937L55.5487 19.9214L55.5212 19.6632L55.3665 19.5503L55.426 19.3796L55.3729 19.1051L55.1972 18.9976L54.875 19.0283L54.7899 18.9217L54.9776 18.5795L54.9245 18.4125L55.0269 18.2074L55.1203 18.2038L55.221 17.8553L55.7693 18.0783L56.0796 17.7188L55.9468 17.5012L55.8169 17.7288L55.5935 17.6005L55.362 17.5816L55.307 17.6511L55.1395 17.4669L55.1853 17.3992L55.0682 17.1788L54.8018 17.121L54.8256 16.9296L55.1258 16.9323L55.2448 16.8374L55.6475 16.8591L55.9331 16.2866L56.074 16.2496L56.2608 16.0049L56.4997 15.9805L56.3843 15.7529L56.4292 15.5027L56.086 15.2074L55.9404 14.9509L55.9706 14.6864L56.3587 14.4597L56.2626 14.2421L55.7024 14.327L55.6027 14.4597L55.2338 14.5103L55.0562 14.326L54.7753 14.2412L54.5904 13.7987L54.6224 13.6812L54.1209 13.5531L53.9103 13.6515L53.6247 13.5702L53.2999 12.9471L52.9475 13.2876L52.8157 13.2586L52.531 13.3878L52.4331 13.0437L52.0862 12.9986L51.7897 12.7394L51.8492 12.5191L51.7741 12.4278L51.6478 12.6355L51.4528 12.5326L51.2762 12.6256L51.1572 12.5885L51.0941 12.4449L50.9815 12.4233L50.9311 12.5037L50.7325 12.3935L50.6694 12.0783L50.6126 12.0079L50.4818 12.082L50.1953 12.0449L50.3152 12.5262L50.0342 12.7981L50.0241 12.7032L49.7432 12.8957L49.9262 13.1449H49.9261L49.743 12.8957L49.7769 12.7431L49.5371 12.5263L49.4044 12.2446L49.0136 12.0251L48.8845 12.0494L48.5349 11.5934L48.4479 11.3866L48.5175 10.945L48.3243 10.9604L48.0452 10.7256L47.9839 10.5991L48.0269 10.2398L47.8228 10.3661L47.5775 10.3454L47.4438 10.5233L47.0073 10.7383L46.1167 10.8403L45.5832 11.1509L45.4605 11.3776L45.1896 11.2322L45.2628 11.0652L45.0806 11.0633L44.7868 10.8574L44.5846 11.0525L44.3667 11.0317L44.3154 10.8104L43.9438 10.3716L43.6519 10.2768L43.1055 10.3228L43.0442 10.4104L42.9315 10.3635L42.6387 10.7301L42.4007 10.7473L42.4566 10.7979L42.3815 10.9396L42.3812 10.9394L42.4561 10.7979L42.4003 10.7473L42.2172 10.6777L42.1577 10.2812L41.8228 10.0989L41.5628 9.66542L41.6617 9.55342L41.5775 9.3177L41.7761 9.2491L41.8529 9.29967L41.8767 9.19581L41.7532 8.95108L41.8575 8.70905L41.6287 8.59434L41.6415 8.37585L41.5299 8.25484L41.5839 8.04169L41.3614 7.90081L41.4347 7.74279L41.334 7.55493L41.4942 7.5929L41.6077 7.50348L41.5967 7.39148L41.2892 7.25148L41.183 7.35088L40.9276 7.3752L40.8031 7.2289L40.88 7.20099L40.8791 7.03028L40.7336 6.83795L40.8086 6.54622L40.5688 6.5065L40.4709 6.63565L40.2796 6.49381L40.1505 6.6374L39.9162 6.66636L39.8228 6.80627L39.6911 6.73409L39.4742 6.79184L39.3258 6.67721L39.3003 6.43248L39.1163 6.39809L39.0467 6.49565L38.4436 6.30604L38.2111 6.47491L37.9649 6.34305L38.1214 5.99804L38.2944 5.89785L37.9283 5.59895L38.2047 5.09775L38.0491 5.02547L37.9805 4.77085L37.9201 4.81775L37.9072 4.69857L37.813 4.71118L37.7635 4.48271L37.5054 4.37076L38.2056 4.10887L38.5561 4.09623L38.6138 3.99147L38.5131 3.77023L38.536 3.58691L38.1754 3.28437L38.0198 3.31959L38.0519 3.1733L37.932 3.12634L37.8321 2.88432L37.693 2.88884L37.6757 2.73351L37.5521 2.69377L37.5539 2.524L37.4404 2.37771L37.553 2.27566L37.6061 2.03003L37.4303 1.9045L37.4112 1.73292L37.2803 1.71486L37.2473 1.59475L37.0642 1.50445L37.0011 1.22089L36.7568 1.14232L36.7449 0.937326L36.2661 0.956287L35.9531 1.18567L35.8405 1.12787L35.8781 1.23623L35.6392 1.17573L35.7445 0.959L35.5687 0.907524L35.5358 1.03485L35.477 1.01701L35.4772 1.01678L35.3701 0.890356L35.0992 0.989686ZM36.4096 36.1588L36.409 36.1584L36.1887 36.2437L36.189 36.2443L36.4096 36.1588ZM40.1753 28.4015L40.1745 28.4012L40.0123 28.4252V28.4255L40.1753 28.4015ZM40.007 28.1595V28.1592L39.5947 28.2238L39.5949 28.2242L40.007 28.1595ZM39.7407 26.747V26.7467L39.5848 26.76V26.7603L39.7407 26.747ZM39.0764 26.1194L39.0762 26.1191L39.0091 26.1279L39.0092 26.1282L39.0764 26.1194ZM38.9627 25.7518V25.7516L38.8636 25.7603V25.7606L38.9627 25.7518ZM38.8485 24.7236L38.8492 24.7229L38.5362 24.7835L38.495 24.945L38.4975 24.9452L38.5387 24.7835L38.8485 24.7236ZM38.2731 24.9317L38.2708 24.9315L38.2023 25.0009L38.2028 25.0029L38.2731 24.9317ZM37.8622 24.1931L37.6841 24.0818H37.6839L37.2455 24.1686L37.035 23.9094L36.1444 24.0503L36.1179 23.9211L35.9799 23.9668L35.9796 23.9681L36.1178 23.922L36.1444 24.0511L37.0349 23.9103L37.2455 24.1703L37.6838 24.0837L37.8622 24.1931ZM36.0379 23.6535L36.0382 23.6519L35.9421 23.5282L35.6291 23.5905L35.6292 23.5914L35.942 23.5292L36.0379 23.6535ZM35.6564 23.784L35.166 23.876L35.1664 23.8766L35.6565 23.7847L35.6564 23.784ZM35.1221 24.062L35.0361 23.7947H35.036L35.122 24.062H35.1221ZM34.8183 23.8378L34.874 23.6366L34.4375 23.6258L34.442 23.5391L34.0322 23.5608L34.0286 23.5644L34.4386 23.5418L34.4341 23.6294L34.4386 23.8714L34.4401 23.8709L34.4364 23.6258L34.8731 23.6366L34.8172 23.838L34.8183 23.8378ZM34.5905 23.8178L34.5759 24.3473L34.3728 24.3779L34.3733 24.3799L34.5774 24.3491L34.5921 23.8172L34.5905 23.8178ZM34.3116 24.1287L34.3105 24.1243L34.2565 24.4936H34.2583L34.3116 24.1287ZM34.5305 24.49L34.5687 24.7383L34.4689 24.7826L34.4743 24.9686L34.4758 24.9698L34.4703 24.7844L34.57 24.7402L34.5316 24.49H34.5305ZM34.709 25.1638L34.5586 25.1863L34.5531 25.3181L34.3553 25.2459L34.2675 25.431L34.1659 25.3488L34.0204 25.3786L33.8666 25.6658L33.9435 25.8753L33.9445 25.8759L33.868 25.6676L34.0219 25.3804L34.1674 25.3507L34.269 25.4328L34.3568 25.2477L34.5546 25.32L34.56 25.1881L34.711 25.1655L34.709 25.1638ZM34.3632 26.1297L34.2227 26.3467L34.0002 26.2257L33.938 26.2808L34.0936 26.5237L33.6524 26.679L33.6616 26.7576L33.6628 26.7575L33.6539 26.6809L34.0951 26.5255L33.9394 26.2826L34.0017 26.2275L34.2241 26.3485L34.365 26.1309L34.3632 26.1297ZM33.9946 26.857L33.217 27.0255L33.2173 27.0276L33.9962 26.8587L33.9946 26.857ZM33.1923 26.8516L33.1921 26.8497L32.8653 26.8732L32.7015 26.753L32.7052 27.0176L32.5149 27.0419L32.5153 27.0439L32.7066 27.0195L32.703 26.7549L32.8668 26.875L33.1923 26.8516ZM34.1418 23.4497L34.0527 23.5399L34.1384 23.4524L34.0643 22.9828L34.068 22.9819L34.1418 23.4497ZM34.3733 22.9024L34.3686 22.9037L34.305 22.711L34.3279 22.4834L34.3321 22.4822L34.3093 22.7083L34.3733 22.9024ZM34.4045 22.4608L34.4002 22.462L34.3947 22.0852L34.1632 22.1015L34.1604 21.7691L34.122 21.4918L33.7486 21.5734L33.7482 21.5722L34.1253 21.4901L34.1637 21.7673L34.1647 21.7676L34.1675 22.0996L34.399 22.0833L34.4045 22.4608ZM34.2169 21.7871L34.216 21.7868L34.28 21.5505L34.4914 21.5261L34.4805 21.4106L34.4814 21.4106L34.4924 21.5261L34.281 21.5505L34.2169 21.7871ZM34.6278 21.519L34.6233 21.5022L34.593 21.3609L34.8529 21.2905L34.8794 21.1977L34.8804 21.1975L34.8539 21.2905L34.5939 21.3609L34.6278 21.519ZM34.7166 21.1739L34.7275 21.2361L34.7266 21.2363L34.7156 21.1739L34.8575 21.1396L34.8145 20.931L34.8156 20.9316L34.8584 21.1396L34.7166 21.1739ZM35.0544 21.2498L35.0542 21.249L35.133 21.1704L35.0588 21.0331L35.4881 20.9365L35.4817 20.8588L35.6391 20.8299L35.706 20.6646L35.8433 20.6258L35.7435 20.4452L35.7499 20.2087H35.7509L35.7445 20.4452L35.8442 20.6258L35.7069 20.6646L35.6401 20.8299L35.4827 20.8588L35.4891 20.9365L35.0598 21.0331L35.134 21.1704L35.0544 21.2498ZM35.5779 20.0984L35.6245 20.2149L35.6236 20.215L35.5769 20.0984L35.6034 19.9422L35.6941 19.9169L35.6163 19.218L35.7298 19.1123H35.7307L35.6172 19.218L35.695 19.9169L35.6044 19.9422L35.5779 20.0984ZM36.0804 19.1186H36.0794L36.0456 18.975L36.0466 18.9754L36.0804 19.1186ZM36.1939 19.0319L36.1933 19.0317L36.4501 18.8892L36.6458 18.5625L36.6469 18.5623L36.451 18.8892L36.1939 19.0319ZM36.2689 18.4007L36.4775 18.5902L36.4766 18.5903L36.2679 18.4007L36.0684 18.3745L35.9668 18.2553L35.9576 18.0584L35.9586 18.0585L35.9678 18.2553L36.0694 18.3745L36.2689 18.4007ZM36.1856 18.0765H36.1847L36.2661 17.9663L36.2668 17.9668L36.1856 18.0765ZM36.43 18.0927L36.4298 18.0926L36.6615 18.0295L36.6616 18.0298L36.43 18.0927ZM36.7851 18.1731L36.7842 18.173L36.9195 17.5675L36.9204 17.5679L36.7851 18.1731ZM38.1645 18.398L38.1637 18.3953L38.2997 18.1099H38.3017L38.1645 18.398ZM38.1635 17.9437L38.1745 18.1072H38.1725L38.1616 17.9437L38.3227 17.9302L38.2513 17.8886L38.3291 17.7848L38.1862 17.5897L38.3446 17.1923L38.2632 17.1147L38.5396 16.8591L38.4965 16.6731L38.4987 16.674L38.5415 16.8591L38.2651 17.1147L38.3466 17.1923L38.1883 17.5898L38.331 17.7848L38.2532 17.8887L38.3246 17.9302L38.1635 17.9437ZM38.958 16.8556L38.9563 16.8549L39.0805 16.5927L39.6196 16.4518L39.6214 16.3137L39.9115 16.2342L39.9123 16.2346L39.6233 16.3137L39.6215 16.4519L39.0824 16.5928L38.958 16.8556ZM40.0334 16.4221L40.032 16.4213L40.1944 16.2171L40.1955 16.2181L40.0334 16.4221ZM40.4041 16.4185L40.4033 16.4177L40.2896 15.9606L40.4241 15.6066L40.4246 15.6068L40.2901 15.9606L40.4041 16.4185ZM40.406 16.4203L40.4052 16.4195L40.5125 16.3038L40.5131 16.3047L40.406 16.4203ZM40.6118 16.4465L40.6113 16.4457L40.7276 16.3444L40.7282 16.3451L40.6118 16.4465ZM40.7903 16.4167L40.7901 16.4163L40.9455 16.3715L40.9456 16.3719L40.7903 16.4167ZM40.9368 16.6054L40.937 16.6053L41.1413 16.5901L41.1414 16.5902L40.9368 16.6054ZM41.8484 17.2493L41.8477 17.2486L41.9193 17.1833L41.9203 17.1837L41.8484 17.2493ZM42.0918 17.2456L42.0913 17.2455L42.29 17.1915V17.1918L42.0918 17.2456ZM42.2987 17.2709V17.2708L42.4602 17.2602L42.4603 17.2602L42.2987 17.2709ZM42.543 17.3532L42.5423 17.3522L42.5874 17.2845L42.5886 17.2848L42.543 17.3532ZM42.8405 17.4498L42.8401 17.4489L43.0854 17.2303L43.0864 17.2306L42.8405 17.4498ZM43.181 17.2529L43.1798 17.2526L43.2565 17.1183L43.2573 17.1194L43.181 17.2529ZM44.3681 19.2875L44.3672 19.2868L44.4519 19.1791L44.4527 19.1799L44.3681 19.2875ZM44.5457 19.2757L44.545 19.2749L44.8335 18.9019L44.7796 18.808L44.9415 18.6806L44.9422 18.6812L44.781 18.808L44.8349 18.9019L44.5457 19.2757ZM45.2797 18.9633L45.2794 18.963L45.7396 18.8468L45.6637 18.5433L45.7287 18.4846L45.5832 18.165L45.6755 18.025L45.68 18.0272L45.5884 18.165L45.734 18.4846L45.669 18.5433L45.7449 18.8468L45.7651 18.9831L45.7691 18.9832L45.7621 18.9831L45.741 18.8468L45.2797 18.9633ZM45.9644 19.1114L45.9498 18.985H45.9527L45.9674 19.1123L46.2428 19.2243L46.2584 19.3281L46.0872 19.3579L46.1001 19.487L46.0269 19.5069L46.09 19.8158L46.0012 19.8302L45.9582 20.1345L45.9864 20.2927L45.9836 20.2926L45.9562 20.1337L45.9991 19.8293L46.0879 19.8149L46.0248 19.506L46.098 19.4862L46.0851 19.357L46.2554 19.3273L46.2398 19.2234L45.9644 19.1114ZM46.3506 20.8389L46.2702 20.3078L46.2731 20.308L46.3536 20.8399L46.1541 20.8868L46.2245 21.3609L46.0936 21.5713L45.766 21.4847L45.7659 21.4845L46.0906 21.5704L46.2216 21.3591L46.1511 20.8859L46.3506 20.8389ZM45.4711 21.2688L45.4744 21.2699L45.2461 21.3573L45.2653 21.9096L45.2614 21.91L45.2431 21.3564L45.4711 21.2688ZM45.4317 22.0816L45.3953 21.8959L45.399 21.8956L45.4356 22.0825L45.1336 22.1511L45.2635 22.4102L45.3358 22.4401L45.277 22.69L45.2689 22.6911L45.3284 22.4382L45.2589 22.4095L45.2596 22.4094L45.1296 22.1502L45.4317 22.0816ZM44.2702 22.4834L44.3052 22.5516L44.3024 22.5521L44.2671 22.4834H44.2702ZM44.0468 22.3597L44.0559 22.4816L44.0525 22.4815L44.0435 22.3602L44.0468 22.3597ZM43.668 22.3308L43.6787 22.4115L43.6755 22.4121L43.6644 22.3299H43.8036L43.842 22.1574L43.7825 21.9884L43.7851 21.9867L43.8455 22.1583L43.8061 22.3308H43.668ZM43.6753 21.8766L43.7094 22.0327L43.7065 22.0346L43.6724 21.8775L43.6753 21.8766ZM43.668 21.8423L43.6128 21.895L43.6059 21.8973L43.6654 21.8404L43.5518 21.6417L43.6498 21.6047L43.6099 21.4483L43.613 21.4477L43.6524 21.6057L43.5545 21.6427L43.668 21.8423ZM43.3449 21.2887L43.3748 21.5001L43.3716 21.5008L43.3416 21.2894L43.3449 21.2887ZM42.8515 21.2634L42.877 21.4061L42.8736 21.407L42.8482 21.2636L42.8515 21.2634ZM42.5348 21.0819L42.6531 21.2776L42.6503 21.2778L42.5326 21.083L42.5348 21.0819ZM41.9592 21.2841L41.9707 21.3647L41.9676 21.3663L41.9557 21.2841L41.2543 21.0559L41.2562 21.0557L41.9592 21.2841ZM40.091 21.1198L40.0902 21.3014L40.0885 21.3013L40.0894 21.1197L40.091 21.1198ZM39.9437 21.7944L39.943 21.7926L40.0565 21.7844L40.0567 21.7863L39.9437 21.7944ZM39.7844 22.3263L39.7843 22.3251L39.9182 22.2639L39.9186 22.2651L39.7844 22.3263ZM39.9502 22.3877L39.9499 22.3868L40.0354 22.3832V22.3841L39.9502 22.3877ZM40.0179 22.8013L40.0205 22.7412L40.0181 22.8004L40.2157 22.7661L40.2155 22.767L40.0179 22.8013ZM40.059 23.2059L40.0595 23.2058L40.1254 23.4758L40.059 23.2059ZM47.049 24.6932L47.051 24.6978L47.1737 24.6363L47.3009 24.127L47.1032 24.0547L47.1028 24.0555L47.2935 24.1252L47.1663 24.6345L47.049 24.6932ZM47.0239 24.1841L46.7865 24.0168L46.6199 23.7414L46.6161 23.7454L46.7791 24.015L47.0226 24.1866L47.0239 24.1841ZM46.5519 23.8037L46.3819 23.6448L46.3791 23.647L46.5494 23.8064L46.5519 23.8037ZM46.2178 23.7668L46.0195 23.4289L46.0141 23.4304L46.2135 23.7703L46.2178 23.7668ZM45.7652 23.4932L45.8172 23.3775L45.8084 23.3789L45.7559 23.4958L45.7652 23.4932ZM45.6969 23.3935L45.6772 23.2709L45.9033 23.1517L45.8898 23.1531L45.6698 23.2691L45.69 23.3946L45.6969 23.3935ZM45.6619 23.1745L45.5326 22.6577L45.5259 22.6586L45.6552 23.1752L45.6619 23.1745ZM45.9985 18.1758L45.9934 18.1734L46.0966 18.0413L46.4435 18.0756L46.4438 18.0759L46.1028 18.0422L45.9985 18.1758ZM46.6474 18.2806L46.6439 18.2769L46.6787 18.2056L46.5314 18.0954L46.6174 17.9681L46.7529 17.9871L46.8481 17.8164L46.8524 17.8189L46.7582 17.9889L46.6227 17.97L46.5366 18.0963L46.684 18.2066L46.6474 18.2806ZM47.1426 17.9871L47.1364 17.9834L47.14 17.6873L47.3752 17.4849L47.5583 17.4913L47.4594 17.2574L47.6077 17.1021L47.6124 17.1047L47.4656 17.2583L47.5636 17.4922L47.3815 17.4859L47.1463 17.6881L47.1426 17.9871ZM47.7045 17.1536L47.6987 17.1503L47.7395 16.8944L48.0305 16.8601L48.1129 16.7968L48.08 16.6316L48.512 16.4582L48.0992 16.2432L48.2786 16.0636L49.1637 16.1909L49.2424 16.0193H49.2425L49.2429 16.0198L49.1708 16.1927L48.2858 16.0653L48.1063 16.2442L48.5191 16.4591L48.0862 16.6334L48.12 16.7977L48.0377 16.8619L47.7457 16.8953L47.7045 17.1536ZM49.3621 16.4239L49.3618 16.4233L49.7568 16.5295L49.7797 16.4175L49.8868 16.4365L49.8868 16.437L49.7822 16.4185L49.7594 16.5304L49.3621 16.4239ZM49.7327 17.2421L49.8054 17.2813V17.2818L49.7326 17.2424L49.7327 17.2421ZM49.6605 17.3757L49.6607 17.3755L49.9866 17.4579L50.3362 17.4299V17.431L49.989 17.4588L49.6605 17.3757ZM50.335 17.8588V17.8585L50.4405 17.8828L50.335 17.8588ZM50.8238 19.7499L50.8222 19.749L50.9778 19.6767L50.9781 19.6786L50.8238 19.7499ZM51.0846 20.4795L51.0838 20.4791L51.3586 20.447L51.359 20.4474L51.0846 20.4795ZM52.2416 21.6481L52.2415 21.6475L52.8624 21.6896V21.6902L52.2416 21.6481ZM49.7083 13.1981H49.7082L49.6744 13.311L49.8098 13.442H49.8099L49.6745 13.311L49.7083 13.1981ZM49.5701 13.526H49.57L49.4968 13.6931L49.5673 13.7987H49.5674L49.4969 13.6931L49.5701 13.526ZM49.6872 13.7761L49.6479 13.8394L49.7833 14.0407H49.7834L49.648 13.8394L49.6872 13.7761H49.6872ZM49.5939 14.0921L49.5938 14.0922L49.636 14.1834H49.6361L49.5939 14.0921ZM49.4722 14.262H49.4721L49.4895 14.4525H49.4896L49.4722 14.262ZM49.3359 14.4399H49.3358L49.29 14.5419L49.4072 14.6024H49.4073L49.2901 14.5419L49.3359 14.4399ZM49.1793 14.6809L49.1792 14.681L49.1444 14.8075L49.1655 15.0341H49.1656L49.1446 14.8074L49.1793 14.6809ZM49.2662 15.0332L49.3247 15.2309L49.2826 15.668L49.4803 15.7104L49.5115 15.7953H49.5115L49.4804 15.7104L49.2827 15.668L49.3248 15.2309L49.2663 15.0332H49.2662ZM49.3312 15.863H49.3311L49.3687 15.9119H49.3687L49.3312 15.863ZM41.0923 15.7104L40.6287 15.7141V15.714L41.0922 15.7104H41.0923ZM41.2072 15.8324L41.2067 15.8318L41.2194 15.6337L41.5123 15.2715L41.4291 15.2372L41.4693 15.0358L41.3257 14.9871L41.3879 14.7712L41.3884 14.7714L41.3262 14.9871L41.4699 15.0359L41.4296 15.2372L41.5129 15.2715L41.2201 15.6337L41.2072 15.8324ZM41.8406 14.8571L41.84 14.857L41.85 14.718L41.6771 14.6575L41.603 14.5283L41.8537 14.4434L41.6899 13.9713L41.6904 13.9712L41.8543 14.4434L41.6036 14.5284L41.6777 14.6575L41.8507 14.718L41.8406 14.8571ZM41.1001 13.8691L41.4404 14.0081H41.44L41.0996 13.8691L41.1353 13.6795L40.997 13.6108L41.0199 13.2262L40.7921 13.0943H40.7926L41.0205 13.2262L40.9976 13.6109L41.1358 13.6795L41.1001 13.8691ZM40.5171 12.9661L40.562 13.0925L40.5614 13.0924L40.5166 12.9663L40.5171 12.9661ZM39.9909 12.7187L40.3768 13.0309L40.3765 13.0311L39.9902 12.7187L39.9061 12.4838L40.2346 12.0557L40.144 11.9339L40.1659 11.6973H40.1661L40.2613 11.6648L40.2275 11.5428L40.2279 11.543L40.2618 11.6648L40.1665 11.6973L40.1446 11.9339L40.2352 12.0557L39.9066 12.4839L39.9909 12.7187ZM40.4823 11.635L40.4819 11.6348L40.5652 11.4471L40.8123 11.2683H40.8127L40.5656 11.4471L40.4823 11.635ZM41.1468 11.3054H41.1464L41.1729 11.1645L41.3678 11.1148L41.2672 11.0471L41.3697 10.9062L41.3699 10.9064L41.2676 11.0471L41.3683 11.1148L41.1733 11.1645L41.1468 11.3054ZM41.5275 11.0191L41.5271 11.0188L41.5217 10.9062L41.6617 10.8403L41.6618 10.8404L41.5221 10.9062L41.5275 11.0191ZM41.9715 11.0408L41.971 11.0404L41.949 10.9179L42.1852 10.8583L42.1853 10.8584L41.9495 10.9179L41.9715 11.0408ZM39.5501 11.7343L39.5236 11.6584L39.5235 11.6585L39.55 11.7343H39.5501ZM38.9424 11.7903L38.8692 11.5645L39.022 11.3451H39.0219L38.869 11.5645L38.9422 11.7903H38.9424ZM38.8545 11.2521L38.8316 11.0733L38.8315 11.0732L38.8544 11.2521H38.8545ZM38.525 10.9477L38.4481 10.6741L38.0527 10.3517L38.0189 9.94892L37.9301 9.8749H37.93L38.0188 9.94892L38.0526 10.3517L38.4481 10.6741L38.5249 10.9477H38.525ZM37.5567 10.1283L37.5695 10.0149L37.5694 10.0148L37.5565 10.1286L37.5567 10.1283ZM37.3287 10.0447L37.1073 9.81444H37.1072L37.3287 10.0447ZM35.7746 10.1331L35.7014 10.0528L35.7013 10.0529L35.7745 10.1331H35.7746ZM35.6473 10.1466L35.5843 10.0763H35.5842L35.6473 10.1467L35.6473 10.1466ZM35.4945 10.153L35.4269 10.0429H35.4268L35.4944 10.1531L35.4945 10.153ZM35.3179 10.0474L35.3088 9.93991H35.3086L35.3178 10.0474H35.3179ZM35.1404 9.93633L35.0103 9.78373L35.1402 9.93633H35.1404ZM33.5037 10.7697L33.1359 10.721L33.1405 10.6587L33.1394 10.6591L33.1349 10.721L33.5037 10.7698V10.7697ZM32.6807 10.7823L32.5593 10.6641L32.5786 10.5233L32.2765 10.4863L32.1914 10.3878L32.1904 10.3879L32.2755 10.4863L32.5775 10.5233L32.5583 10.6641L32.68 10.7824L32.6807 10.7823ZM31.4911 10.9766L31.3625 11.0615L31.3623 11.0625L31.491 10.9775L31.4911 10.9766ZM32.0194 12.2423L32.0198 12.2427L32.0837 12.1518L32.0832 12.1515L32.0194 12.2423ZM32.4545 13.3813L32.4546 13.3815L32.6178 13.3392V13.339L32.4545 13.3813ZM33.348 15.4701L32.73 15.3411L32.6312 15.2192L32.631 15.2197L32.7294 15.3411L33.3481 15.4703L33.348 15.4701ZM32.9479 15.9416L33.275 15.9227L33.2749 15.9226L32.9478 15.9416H32.9479ZM33.4164 16.0427L33.4165 16.0428L33.7054 15.9724L33.7051 15.9723L33.4164 16.0427ZM33.7056 15.9725L33.4018 16.3679L33.8155 16.5693L33.8147 16.6713L33.5767 16.7734L33.6224 17.0659L33.7542 17.1219L33.671 17.2059L33.3289 17.2781L33.329 17.2782L33.6713 17.2059L33.7546 17.1219L33.6228 17.066L33.577 16.7734L33.815 16.6713L33.8159 16.5693L33.4022 16.3679L33.7059 15.9726L33.7056 15.9725ZM33.9333 16.0354L33.934 16.0356L34.0676 15.9781L34.0675 15.9778L33.9333 16.0354ZM34.9123 16.757L34.9133 16.7571L34.9042 16.3573L34.9032 16.3561L34.9123 16.757ZM35.3929 17.4493L35.3939 17.4498L35.4113 17.3162L35.4102 17.3161L35.3929 17.4493ZM35.6199 17.5053L35.62 17.5058L35.8142 17.4365L35.8139 17.4362L35.6199 17.5053ZM35.9232 17.5234L35.9238 17.5238L36.2098 17.2137L36.2093 17.2132L35.9232 17.5234ZM34.7752 7.81952V7.81961L34.5857 7.83755L34.7752 7.81952ZM34.517 7.59832L34.5173 7.59894L34.3953 7.71479L34.3947 7.71452L34.517 7.59832ZM34.2709 5.73344L34.3007 5.64585L34.3019 5.64497L34.2718 5.73344L34.4217 5.84448L34.4209 5.84456L34.2709 5.73344ZM34.5574 5.77771L34.425 5.7232L34.4246 5.72259L34.5574 5.77736V5.77771ZM35.241 3.08209L35.1217 3.04701L35.1221 3.04685L35.2411 3.08183L35.241 3.08209ZM35.4726 2.59986L35.3557 2.48272L35.3563 2.48245L35.4733 2.59967L35.4726 2.59986ZM31.5033 10.7731L31.5201 10.7059L31.5034 10.7726L31.5033 10.7731ZM31.3621 10.4503V10.4501L31.2087 10.5205L31.2087 10.5206L31.3621 10.4503ZM30.9815 10.1942L30.9539 10.1847L31.0098 10.0601H31.0091L30.9533 10.1847L30.9815 10.1942ZM31.1904 10.0691H31.191L31.2477 9.84419H31.2469L31.1904 10.0691ZM30.9063 9.82887L30.8111 9.58773L30.8108 9.58746L30.9057 9.82887H30.9063ZM30.7221 9.50968L30.6144 9.41526L30.614 9.41544L30.7221 9.50968ZM29.1619 9.92232L29.1014 9.87761L29.1013 9.8777L29.1619 9.92232ZM28.9729 10.037L28.7152 9.71233L28.4753 9.61485L28.4772 9.51912L28.6584 9.50014L28.5742 9.35471L28.63 9.10822L28.3372 8.83277L28.3436 8.71806L28.3421 8.71833L28.3357 8.83277L28.6295 9.1091L28.5737 9.35471L28.6579 9.50014L28.4766 9.51912L28.4748 9.61476L28.7146 9.71233L28.9727 10.0375L28.9729 10.037ZM27.8022 8.80276L27.615 8.72532L27.6146 8.72576L27.8011 8.80294L27.8022 8.80276ZM27.4933 8.86454L27.4301 8.80924L27.4402 8.78763L27.1445 8.73163L27.1282 8.5218L27.1256 8.52119L27.1422 8.7325L27.4377 8.7885L27.4287 8.8102L27.4927 8.86524L27.4933 8.86454ZM27.2173 8.54096L27.2178 8.54105L27.2727 8.43902L27.2352 8.22859L26.9853 8.09672L26.8535 7.63079L26.7208 7.50348L26.7194 7.50356L26.852 7.63166L26.9838 8.09769L27.2337 8.23043L27.2712 8.44086L27.2173 8.54096ZM26.4133 7.52229L26.4361 7.27317L26.3629 7.17202L26.4627 7.09441L26.3785 6.81625L26.3945 6.80995L26.3761 6.81713L26.4603 7.09529L26.3605 7.17202L26.4338 7.27317L26.4117 7.52238L26.4133 7.52229ZM26.5288 6.75727L26.5304 6.75666L26.4215 6.52907L26.4891 6.51192L26.42 6.52907L26.5288 6.75727ZM26.5837 6.48795L26.5853 6.48751L26.5367 6.37481L26.5837 6.48795ZM28.5681 27.741L28.5679 27.7416L28.4143 27.387L28.4145 27.3866L28.5681 27.741ZM28.5022 27.2588L28.502 27.2591L28.4389 26.9743L28.0775 26.6763L28.0088 26.4044L28.009 26.4043L28.0776 26.6754L28.4391 26.9735L28.5022 27.2588ZM28.7109 26.2672H28.7105L28.666 26.1308H28.6663L28.7109 26.2672ZM28.8902 25.8563L28.8902 25.8571L28.7867 25.4617L28.2989 25.5312L28.2962 25.3813H28.2963L28.299 25.5303L28.7868 25.4608L28.8902 25.8563ZM28.4894 25.0354L28.4893 25.0364L28.0161 25.1564L27.9172 25.03L27.9175 25.0293L28.0162 25.1555L28.4894 25.0354ZM27.9457 24.9325L27.9454 24.9334L27.6692 24.9885L27.5557 24.7365L27.5561 24.7363L27.6693 24.9876L27.9457 24.9325ZM27.6693 24.6788L27.6687 24.679L27.5869 24.5839L27.5988 24.3202L27.4853 24.3383L27.4854 24.3374L27.5988 24.3193L27.5869 24.583L27.6693 24.6788ZM27.5558 23.7911L27.5557 23.7919L27.2519 23.7684L27.174 23.67L27.1745 23.6697L27.252 23.7675L27.5558 23.7911ZM27.3013 23.3115L27.3013 23.3124L27.0535 23.3602L27.0534 23.3593L27.3013 23.3115ZM26.949 23.5292L27.0869 23.4922L27.0871 23.493L26.9489 23.5301L26.9132 23.3811L26.3256 23.4532L26.3018 23.3485L26.1645 23.3729L26.0657 22.8374L26.0659 22.8373L26.1646 23.372L26.3019 23.3476L26.3257 23.4524L26.9133 23.3802L26.949 23.5292ZM26.2094 22.6243L26.2093 22.6251L26.1672 22.5312L25.8817 22.5692L25.8103 22.0427L25.6218 21.8747L25.565 21.658L25.5653 21.6578L25.6219 21.8739L25.8104 22.0418L25.8818 22.5683L26.1673 22.5304L26.2094 22.6243ZM25.6584 21.6093L25.6579 21.6095L25.5092 21.4151L25.5097 21.4148L25.6584 21.6093ZM25.9605 21.2516L25.9578 21.2513L25.8295 21.1911L25.8247 21.1703L25.8296 21.1902L25.9605 21.2516ZM25.9999 20.9103L25.8882 20.9884L26.0005 20.9094L26.4091 20.9978L26.409 20.9979L25.9999 20.9103ZM26.5701 21.0088L26.4816 20.9088L26.4819 20.9085L26.5716 21.0087L26.5701 21.0088ZM27.2931 20.8435L27.0809 20.8174L27.0814 20.8173L27.2937 20.8435L27.3219 20.9485L27.3215 20.9491L27.2931 20.8435ZM27.5128 20.9825L27.3895 20.8465L27.3898 20.8462L27.5143 20.9816L27.6479 20.9879L27.7495 20.8723L27.9236 20.8607L27.9237 20.8615L27.749 20.8732L27.6473 20.9889L27.5128 20.9825ZM28.1141 20.6566L27.8925 20.7007L27.8923 20.6999L28.1147 20.6556L28.4634 20.7134L28.5119 20.8913L28.6355 20.9329L28.6848 21.1781L28.6834 21.1785L28.634 20.9329L28.5114 20.8913L28.4628 20.7143L28.1141 20.6566ZM28.9608 21.1957L28.9443 21.0949L28.9458 21.0945L28.963 21.1946L28.9608 21.1957ZM29.1758 21.2182L29.1395 21.1117L29.1416 21.1108L29.178 21.2175L29.1758 21.2182ZM29.5007 21.3085L29.4615 21.1242L29.4638 21.1234L29.5032 21.3085L29.419 21.416L29.4821 21.4774L29.6563 21.4013L29.6564 21.4015L29.4806 21.4783L29.4175 21.416L29.5007 21.3085ZM29.7094 21.2571L29.6343 21.2243L29.6341 21.2228L29.71 21.2558L29.7094 21.2571ZM29.9136 21.0981L29.7638 21.1259L29.764 21.1252L29.915 21.0972L29.9425 21.1857L30.0789 21.1677L30.11 21.2851L30.3343 21.2444L30.3764 21.5154L30.3739 21.5166L30.3328 21.2462L30.1085 21.2859L30.0765 21.1685L29.941 21.1866L29.9136 21.0981ZM30.2146 21.5984L30.2172 21.5971L30.2821 21.965L30.5667 21.8802L30.5978 22.1023L30.6729 22.087L30.694 22.3317L30.6913 22.3318L30.6705 22.0896L30.5954 22.105L30.5643 21.8829L30.2797 21.9678L30.2146 21.5984ZM30.6082 22.3389L30.6112 22.3388L30.6482 22.5159L30.6453 22.5166L30.6082 22.3389ZM30.5195 22.5466L30.5215 22.5461L30.5484 22.6911L31.222 22.5448L31.4857 22.8573L31.7593 22.8006L31.7588 22.8049L31.4832 22.8618L31.2205 22.5484L30.546 22.6947L30.5195 22.5466ZM31.983 22.5105L31.791 22.5578L31.7913 22.5548L31.9854 22.5069L32.1831 22.6631L33.0807 22.5324L33.0795 22.5358L32.1807 22.6667L31.983 22.5105ZM33.3559 22.0283L33.0755 22.0791L33.0746 22.077L33.3552 22.0261L33.3559 22.0283ZM33.8135 21.7871L33.1966 21.8025L33.1963 21.7998L33.8127 21.7845L33.8135 21.7871ZM33.1497 17.1908L33.1492 17.1906L33.1574 17.3134L32.8594 17.3477L32.8595 17.3478L33.1579 17.3134L33.1497 17.1908ZM32.7277 17.273L32.7273 17.2728L32.7529 17.3965L32.6718 17.4001L32.7533 17.3965L32.7277 17.273ZM32.4292 16.8766L32.4289 16.8763L32.3649 16.982H32.3652L32.4292 16.8766ZM24.8234 20.6622V20.662L24.7741 20.7232L24.7743 20.7233L24.8234 20.6622ZM24.6414 20.653L24.6413 20.6529L24.5123 20.8694L24.5124 20.8696L24.6414 20.653ZM24.7571 19.5556L25.0061 19.5142L24.7571 19.5555V19.5556ZM25.2067 19.6494L25.2069 19.6496L25.3643 19.4059L25.364 19.4057L25.2067 19.6494ZM25.5737 19.5086L25.5739 19.5087L25.6508 19.4049L26.0608 19.2938L26.1103 19.0852L26.1099 19.0851L26.0605 19.2938L25.6505 19.4049L25.5737 19.5086ZM26.6087 19.1168H26.6091L26.6264 18.9434L26.502 18.8395L26.707 18.6761L26.7464 18.5235L26.6402 18.4125H26.6398L26.746 18.5235L26.7067 18.6761L26.5017 18.8395L26.6261 18.9434L26.6087 19.1168ZM26.7433 18.4179H26.7436L26.8306 18.2716L27.0099 18.1957H27.0096L26.8302 18.2716L26.7433 18.4179ZM27.3474 18.2453H27.3477L27.3733 18.1859L27.373 18.1857L27.3474 18.2453ZM27.5928 18.2913L27.593 18.2914L27.8052 18.1787L27.805 18.1786L27.5928 18.2913ZM28.3158 18.3771L28.3161 18.3772L28.6317 18.1868L28.6315 18.1866L28.3158 18.3771ZM28.7708 18.2814L28.771 18.2815L28.9153 18.24L28.9152 18.2399L28.7708 18.2814ZM28.9769 18.3799L29.1371 18.3727L29.6945 17.904L29.7624 17.527L29.7627 17.5229L29.6941 17.904L29.1367 18.3726L28.9769 18.3799ZM29.7521 17.6427V17.643L29.8811 17.5573L29.8808 17.5572L29.7521 17.6427ZM30.0831 17.5951H30.0835L30.1301 17.4362H30.1298L30.0831 17.5951ZM30.2754 17.4561H30.2756L30.4521 17.3514L30.452 17.3513L30.2754 17.4561ZM30.7956 17.66V17.6602L31.1386 17.4318L31.1384 17.4317L30.7956 17.66ZM31.3601 17.5661L31.3603 17.5662L31.5031 17.5229L31.471 17.2782L31.6047 17.2393L31.6302 17.1266L31.6299 17.1265L31.6042 17.2393L31.4706 17.2782L31.5026 17.5229L31.3601 17.5661ZM31.7279 17.1796L31.7282 17.1798L31.7749 16.8456L31.9359 16.7247L31.9356 16.7246L31.7745 16.8456L31.7279 17.1796ZM21.5396 21.2832L21.5375 21.2845L21.593 21.0042L21.5948 21.0045L21.5396 21.2832ZM21.8856 21.1522L21.8825 21.1543L21.9747 20.8326L21.9769 20.8342L21.8856 21.1522ZM22.2214 21.0557L22.2436 21.0347L22.2438 21.0349L22.2214 21.0557ZM22.3927 21.1712L22.5654 21.12L22.566 21.1216L22.3936 21.1727L22.3927 21.1712ZM22.9162 21.3004H22.9155L22.9815 21.1938H22.9817L22.9162 21.3004ZM23.5304 21.2661L23.5289 21.2659L23.6268 21.1135L23.6276 21.1139L23.5304 21.2661ZM23.8242 21.2191L23.8205 21.2171L23.7961 20.8299L23.7996 20.8293L23.8242 21.2191ZM31.2316 11.5284L31.0376 11.4652L31.0367 11.4672L31.2299 11.5302L31.2316 11.5284ZM30.9469 11.7006L30.8591 11.6756L30.8611 11.6784L30.9462 11.7027L30.9469 11.7006ZM30.9695 11.8339L30.7795 11.9384L30.7794 11.9393L30.9699 11.8345L30.9695 11.8339ZM30.9969 12.2242L30.7483 12.333V12.3341L30.9984 12.2246L30.9969 12.2242ZM30.7512 12.6962L30.7126 12.5985L30.4883 12.5832L30.1745 13.1323L29.8678 13.1051L29.8532 12.8622L29.7836 12.8577L29.5136 13.1602L29.2738 12.8911L29.3232 12.5136L28.9022 12.4676L28.8868 12.5183L28.9015 12.4703L29.3225 12.5155L29.2731 12.8938L29.5129 13.1629L29.7829 12.8595L29.8525 12.864L29.8671 13.107L30.1737 13.134L30.4876 12.5849L30.7109 12.6004L30.7512 12.7024V12.6962ZM29.0376 12.6571L29.002 12.7187L29.0022 12.7188L29.0379 12.6572L29.0376 12.6571ZM29.1222 12.8936L28.6066 13.1241L28.6062 13.1257L29.123 12.8947L29.1222 12.8936ZM28.6375 13.8762L28.3778 14.289L28.3779 14.2895L28.6379 13.8764L28.6375 13.8762ZM28.4297 14.5148L28.3037 14.5202L28.303 14.5229L28.4301 14.5166L28.4297 14.5148ZM28.244 14.7931L28.0803 14.9095L28.0807 14.9114L28.2434 14.7956L28.244 14.7931ZM28.0923 14.9844L28.0464 14.9203L28.045 14.9233L28.0933 14.9898L28.0923 14.9844ZM27.9426 15.1398L27.7106 15.1741L27.7108 15.1757L27.9414 15.1424L27.9426 15.1398ZM27.7426 15.3396L27.6712 15.4423L27.1202 15.5704L26.7385 15.3935L26.464 15.5876L26.323 15.4143L26.3216 15.4156L26.4623 15.5894L26.7369 15.3953L27.1194 15.5723L27.6704 15.4441L27.7428 15.3402L27.7426 15.3396ZM26.0138 16.0146L25.9789 15.9272L25.4416 15.836L25.4668 15.6616L25.4408 15.836L25.9772 15.9281L26.0129 16.0175L26.0138 16.0146ZM25.4771 15.5903L25.4773 15.5894L25.3079 15.5614L25.2357 15.738L25.3081 15.5624L25.4771 15.5903ZM25.187 15.8563L25.0865 15.6093L24.9455 15.5696L24.6947 15.6617V15.662L24.9448 15.5704L25.0857 15.6103L25.1864 15.8576L25.187 15.8563ZM24.7187 15.9343L24.4696 16.1899V16.1901L24.7187 15.9345V15.9343ZM24.4956 16.2579L24.1291 16.2875L24.0111 16.1585L24.0093 16.1602L24.1274 16.2893L24.4963 16.2595L24.4956 16.2579ZM24.0989 16.0708L24.1007 16.0689L24.0348 16.0545L23.9652 15.9019L23.892 16.0103L23.6577 15.891L23.6806 15.6942L23.4308 15.6156L23.3113 15.3693L23.3101 15.3709L23.43 15.6183L23.6799 15.6969L23.657 15.8938L23.8913 16.013L23.9654 15.9046L24.035 16.0563L24.0345 16.0564L24.0989 16.0708ZM23.8903 16.7198L23.7796 16.684L23.7796 16.6842L23.8904 16.7201L23.8903 16.7198ZM23.7076 16.879L23.6689 16.8176L23.6685 16.8185L23.7073 16.8799L23.7076 16.879ZM23.7483 17.0692L23.7485 17.0696L23.8786 17.0157L23.8785 17.0153L23.7483 17.0692ZM24.9182 19.3426L24.8331 19.3399L24.9182 19.3426ZM22.588 6.34209H22.5879L22.6721 6.75395L22.7444 7.00945L22.7449 7.00866L22.672 6.75299L22.588 6.34209ZM22.8392 6.85729L23.3329 7.33364L23.1911 7.5495L23.2304 7.73264L23.2312 7.73281L23.1928 7.5495L23.3337 7.33364L22.8394 6.85685L22.8392 6.85729ZM23.0372 7.69685L23.0364 7.69667L23.0319 7.87194L23.3457 8.21231L23.3036 8.41829L23.4556 8.5302H23.4563L23.3044 8.41732L23.3465 8.21231L23.0326 7.87194L23.0372 7.69685ZM23.2888 8.52749H23.2872L23.3375 8.71535L23.5297 8.73066L23.6102 8.93296L23.1389 9.46041L23.321 9.67986L23.1856 9.96336L23.3247 10.0321L23.3375 10.168L23.3383 10.1675L23.3255 10.0311L23.1864 9.96249L23.3218 9.67986L23.1397 9.46041L23.611 8.93296L23.5314 8.73075L23.3383 8.71535L23.2888 8.52749ZM23.1704 10.1764L23.1692 10.1756L23.1481 10.2605L23.3046 10.3264L23.167 10.412L23.3071 10.3255L23.1497 10.2596L23.1704 10.1764ZM23.1315 10.434L23.1288 10.4357L23.1774 10.5107L23.2707 10.4483L23.3493 10.4337L23.2733 10.4465L23.1799 10.5088L23.1315 10.434ZM23.4856 10.4107L23.5837 10.5296L23.5874 10.6334L23.732 10.6614L23.6954 10.8547L23.905 10.8782L23.8895 11.0905L23.892 11.0895L23.9076 10.8763L23.698 10.8529L23.7346 10.6597L23.59 10.6317L23.5863 10.5278L23.503 10.4077L23.4856 10.4107ZM23.821 11.1173L23.8181 11.1184L23.9306 11.3288L23.7576 11.5582L23.905 11.6964L23.7695 11.9249L23.9151 12.0928L23.8546 12.2689L24.0368 12.6816L23.8409 12.8333L23.9141 12.873L23.7796 13.0604L23.7803 13.06L23.9158 12.8712L23.8435 12.8315L24.0394 12.6798L23.8573 12.2671L23.9176 12.091L23.7721 11.923L23.9076 11.6946L23.7602 11.5564L23.9332 11.327L23.821 11.1173ZM23.3326 13.2012L23.3321 13.2009L23.2552 13.3507H23.256L23.3326 13.2012ZM23.1152 13.3428L23.1124 13.3426L23.1883 13.5458L23.116 13.7075L23.1435 13.7806L23.289 13.7824L23.321 14.0785L23.322 14.0787L23.4094 14.1397L23.4106 14.1373L23.3227 14.0768L23.2907 13.7797L23.1452 13.7779L23.1177 13.7048L23.1909 13.5431L23.1152 13.3428ZM23.312 14.3358L23.311 14.3378L23.4392 14.6836L23.5733 14.7512L23.5745 14.7496L23.439 14.681L23.312 14.3358ZM23.4672 14.9037L23.4657 14.9058L23.5984 15.0108L23.6001 15.0088L23.4672 14.9037ZM17.2272 16.5476H17.2258L17.2176 16.4618L17.2191 16.4628L17.2272 16.5476ZM17.3563 16.5512L17.3551 16.5505L17.407 16.3868L17.548 16.3363L17.5487 16.3365L17.4084 16.3868L17.3563 16.5512ZM17.856 16.4627L17.8548 16.4622L17.9745 16.2053L17.9752 16.2067L17.856 16.4627ZM18.0207 16.2929L18.0204 16.2922L18.0889 16.2378L18.0897 16.2383L18.0207 16.2929ZM18.212 16.3173L18.2114 16.3169L18.3452 16.2459L18.2161 16.0139L18.2253 15.5921L18.0862 15.4558L18.1951 15.1154L17.8857 15.0675L17.904 14.9582L17.9901 14.8462L17.8463 14.8065L17.8473 14.6493L18.0129 14.643L18.0221 14.5256L17.9095 14.4209L18.0761 14.1978L17.9269 13.8565L18.0724 13.8366L18.1455 13.6211L18.1461 13.6208L18.526 13.469L18.5267 13.4691L18.1471 13.6208L18.0739 13.8366L17.9283 13.8565L18.0775 14.1978L17.9109 14.4209L18.0235 14.5256L18.0143 14.643L17.8487 14.6493L17.8478 14.8065L17.9914 14.8462L17.9054 14.9582L17.8871 15.0675L18.1965 15.1154L18.0876 15.4558L18.2267 15.5921L18.2175 16.0139L18.3466 16.2459L18.212 16.3173ZM18.8838 13.5088H18.8832L19.3589 13.4329L19.4256 13.3065L19.4264 13.3068L19.3598 13.4329L18.8838 13.5088ZM19.833 13.4627L19.8322 13.4625L19.9702 13.2613L19.971 13.2617L19.833 13.4627ZM20.1616 13.3309L20.1611 13.3307L20.2942 13.2794L20.2944 13.2797L20.1616 13.3309ZM20.4279 13.4872L20.4275 13.4865L20.5881 13.3047L20.5889 13.3049L20.4279 13.4872ZM20.9322 13.3788L20.9313 13.3786L20.9944 13.162L21.2754 13.0799L21.3633 12.948L21.3639 12.9485L21.2764 13.0799L20.9954 13.162L20.9322 13.3788ZM22.1312 14.3866L22.1306 14.3865L22.5092 14.2971L22.5095 14.2973L22.1312 14.3866ZM22.609 14.3577L22.6081 14.3571L22.6218 14.1771L22.6227 14.1774L22.609 14.3577ZM22.8158 14.2421L22.815 14.2418L22.8598 14.1734L22.8604 14.1738L22.8158 14.2421ZM22.9376 14.2123L22.9368 14.2119L23.019 14.0371L23.0199 14.0372L22.9376 14.2123ZM18.0077 13.7155L17.7397 13.516L17.8184 13.3643H17.818L17.7393 13.516L18.0074 13.7156L18.0077 13.7155ZM17.6024 13.3878L17.4899 13.1882L17.5018 12.9371L17.2574 12.8811L17.3407 12.6671L17.2611 12.3701L17.2606 12.37L17.3403 12.6671L17.257 12.8811L17.5013 12.9371L17.4894 13.1882L17.6021 13.3878H17.6024ZM17.4547 12.3998H17.455L17.5503 12.2463H17.5498L17.4547 12.3998ZM17.6715 12.2482H17.672L17.6327 12.0557L17.4716 12.0106L17.5539 11.876L17.5237 11.7343L17.6738 11.6684L17.6208 11.5031L17.6204 11.5034L17.6734 11.6684L17.5233 11.7343L17.5535 11.876L17.4711 12.0106L17.6322 12.0557L17.6715 12.2482ZM17.4971 11.6076L17.4148 11.1969L17.4144 11.1972L17.4968 11.6078L17.4971 11.6076ZM17.1721 11.3449L16.7741 11.0443L16.8629 11.0019L16.754 10.8917L16.5453 10.8475L16.5527 10.6696L16.3403 10.5431L16.4922 10.0735L16.4918 10.0736L16.3399 10.5431L16.5522 10.6696L16.5449 10.8475L16.7536 10.8917L16.8625 11.0019L16.7737 11.0443L17.1718 11.3451L17.1721 11.3449ZM16.3933 10.0808L16.1682 9.74032H16.1678L16.393 10.0808H16.3933ZM15.9716 9.74934L15.9249 9.59044L15.9244 9.59079L15.971 9.74934H15.9716ZM15.7815 9.78714L15.6211 9.75205L15.621 9.75222L15.7815 9.78731V9.78714ZM15.5062 9.9253L15.2577 9.81978L15.2576 9.82004L15.5061 9.92547L15.5062 9.9253ZM15.1163 9.99477L15.0243 9.93807L15.024 9.93834L15.1162 9.99495L15.1163 9.99477ZM14.7643 10.2206L14.7461 10.144L14.7461 10.1469L14.7637 10.2208L14.7643 10.2206ZM14.4745 10.6858L14.3315 10.6704L14.3314 10.6705L14.4745 10.6859V10.6858ZM13.1948 18.0869L13.1107 18.0539L13.1109 18.0543L13.1949 18.0873L13.1948 18.0869ZM13.3066 18.7508V18.7511L13.4217 18.717L13.422 18.7168L13.3066 18.7508ZM13.5817 19.2327L13.582 19.2333L13.6523 19.137L13.6517 19.1367L13.5817 19.2327ZM13.839 19.2557L13.8392 19.2559L13.9712 19.2245L13.9711 19.2243L13.839 19.2557ZM14.3255 19.6495L14.3261 19.6496L14.4084 19.6026L14.3618 19.3964L14.361 19.3959L14.4077 19.6026L14.3255 19.6495ZM14.5061 19.496L14.5064 19.4961L14.6821 19.4563L14.5567 19.2423L14.5561 19.2424L14.6814 19.4563L14.5061 19.496ZM14.4057 19.2648L14.3892 19.1791L14.5068 19.1459L14.5066 19.1457L14.3885 19.1791L14.405 19.2649L14.4057 19.2648ZM14.7216 19.2807L14.7223 19.2812L14.726 19.0237L14.7253 19.0229L14.7216 19.2807ZM14.8818 19.2144L14.8826 19.2153L14.8798 18.9877L14.9581 18.9212L14.9578 18.9208L14.8791 18.9877L14.8818 19.2144ZM15.1899 19.2393L15.19 19.2396L15.5327 19.0223L15.5326 19.022L15.1899 19.2393ZM15.8266 19.1655L15.8271 19.1656L16.0712 19.0492L16.0708 19.0491L15.8266 19.1655ZM16.3235 19.1292L16.3241 19.1294L16.3826 19.0473L16.3242 18.8653L16.3234 18.8648L16.382 19.0473L16.3235 19.1292ZM11.5765 18.6806L11.3158 18.6301L11.3872 18.4702L11.2554 18.3826L11.3873 18.4702L11.3159 18.6301L11.5767 18.6806L11.649 18.816L11.6489 18.8161L11.5765 18.6806ZM12.0187 18.8648L11.8018 18.6211L11.8019 18.6211L12.0188 18.8648L12.005 18.9795L12.1843 19.0274L12.0049 18.9795L12.0187 18.8648ZM12.5321 18.9218L12.3904 18.8685L12.5321 18.9217V18.9218ZM12.6721 18.9398L12.6246 18.7513L12.6247 18.7511L12.6723 18.9398L12.6046 19.0427L12.7602 19.2567L12.76 19.2568L12.6044 19.0427L12.6721 18.9398ZM12.987 19.3001L12.8288 18.8776L12.8288 18.8775L12.9871 19.3001H12.987ZM13.4007 19.3896L13.2973 19.2469H13.2974L13.4008 19.3896L13.56 19.395L13.4007 19.3896ZM7.7737 20.5951L7.77186 20.4263L7.40121 20.121L7.31888 19.9458H7.31879L7.40113 20.121L7.77186 20.4263L7.77361 20.5951H7.7737ZM6.82546 20.0371L6.70375 19.8438L6.64793 19.2686H6.64784L6.70366 19.8438L6.82546 20.037V20.0371ZM6.02466 19.5729L5.9761 19.1412L6.02457 19.5729H6.02466ZM5.80311 19.1755L5.6366 19.0075L5.61822 18.7981V18.798L5.63651 19.0075L5.80311 19.1755ZM5.36202 18.7845L5.10941 18.4729H5.10933L5.36194 18.7845H5.36202ZM4.87412 18.3772L4.96661 18.1189L4.89154 17.932L4.95471 17.7361L5.05901 17.6882L4.91438 17.5338L4.99409 17.3359L4.92995 17.2385L5.11116 16.9973L5.24941 16.9558L5.31443 16.6713L5.5239 16.5395H5.52372L5.31407 16.6713L5.24906 16.9558L5.1109 16.9973L4.92969 17.2385L4.99374 17.3359L4.91411 17.5338L5.05875 17.6881L4.95436 17.736L4.89128 17.932L4.96626 18.1189L4.87386 18.3772H4.87404H4.87412ZM4.29549 18.1822L4.2954 18.1822L4.182 18.2552L4.18218 18.2553L4.29549 18.1822ZM4.05749 18.156H4.0574L3.79858 18.2218L3.79866 18.2219L4.05749 18.156ZM3.47719 17.7461L3.4771 17.746L3.13874 17.8813V17.8814L3.47719 17.7461ZM5.96884 16.646H5.96857L6.17901 16.4681L6.17919 16.4683L5.96884 16.646ZM6.32855 16.5738L6.32829 16.5736L6.45543 16.4293L6.45569 16.4293L6.32855 16.5738ZM6.78154 16.5241L6.78128 16.524L6.80411 16.4474L6.98541 16.4447L7.37619 16.2514L7.37645 16.2515L6.98567 16.4447L6.80446 16.4474L6.78154 16.5241ZM7.6099 16.3047L7.60964 16.3046L7.66363 16.041H7.66389L7.6099 16.3047ZM7.39482 15.8107L7.34723 16.0283H7.34687L7.39448 15.8107H7.39482ZM7.19804 15.7069L7.20626 15.7926H7.20591L7.19769 15.7069L7.20136 15.64H7.20171L7.19804 15.7069ZM7.43595 15.6626H7.43569L7.48416 15.4621L7.61506 15.3465L7.47042 15.2797L7.4146 15.1072L7.53911 15.0377L7.51619 14.8092L7.6526 14.7523L7.62145 14.6106L7.74325 14.5049L7.74343 14.505L7.6218 14.6106L7.65295 14.7523L7.51654 14.8092L7.53938 15.0377L7.41495 15.1072L7.47078 15.2797L7.61541 15.3465L7.48451 15.4621L7.43595 15.6626ZM7.87712 14.6656V14.6655L8.04434 14.616H8.04443L7.87712 14.6656ZM8.5087 14.7956H8.50835L8.48919 14.4453L9.1765 14.2628L9.33033 14.1184L9.43279 13.6705L9.43305 13.6707L9.33067 14.1184L9.17685 14.2628L8.48954 14.4453L8.5087 14.7956L8.68265 15.3113H8.68256L8.5087 14.7956ZM8.93517 15.4865L8.79517 15.305L8.93526 15.4865L8.83551 15.6328L8.89221 15.8956L9.15489 16.0247L8.93343 16.3615L9.06975 16.5168L9.31781 16.5711L9.34258 16.7905H9.34249L9.31781 16.5711L9.06975 16.5169L8.93334 16.3615L9.15489 16.0247L8.89221 15.8956L8.83542 15.6328L8.93517 15.4865ZM9.11184 16.7364L9.07526 16.8673L9.26654 17.1499L9.07526 16.8673L9.11184 16.7364ZM9.64909 17.2059L9.42579 17.0678L9.64917 17.2059H9.64909ZM9.70771 17.2809L9.72504 17.1329V17.1328H9.72512L9.70771 17.2809L9.82216 17.3721H9.82207L9.70771 17.2809ZM9.73423 17.4624H9.73431L9.80108 17.7234L9.73423 17.4624ZM10.0134 17.821L10.093 17.4326H10.0931L10.0134 17.8209V17.821H10.0134ZM10.3767 17.8525L10.1287 17.727H10.1288L10.3768 17.8525H10.3767ZM10.1168 17.9591H10.1169L10.1544 18.1135L10.2386 18.1216L10.1543 18.1136L10.1168 17.9591ZM10.4656 18.0087L10.3429 17.951H10.343L10.4656 18.0087ZM10.7767 17.8959L10.7713 17.7297L10.6925 17.7252L10.7713 17.7297L10.7768 17.8959L11.3506 18.277L10.7767 17.8959ZM9.57664 13.7913L9.57681 13.7915L9.72968 13.637L9.60245 13.5079L9.62441 13.2424H9.62406L9.6021 13.5079L9.72933 13.637L9.57664 13.7913ZM10.2602 13.2387H10.2605L10.2935 13.1142L10.5205 13.0554L10.5644 12.7412L10.6825 12.7024L10.6075 12.4947L10.4491 12.4016L10.4957 12.2039L10.7026 12.1696L10.7703 11.9718L10.8821 11.9357L10.7612 11.8164L10.8427 11.635L10.8424 11.635L10.761 11.8164L10.8818 11.9357L10.7701 11.9718L10.7024 12.1696L10.4956 12.2039L10.4488 12.4016L9.97844 11.8074L10.0379 11.5681L9.88963 11.3875L10.0086 11.0932L9.71848 11.057V11.0569L9.54864 10.9883L9.53035 10.7996L9.18989 10.5766V10.5769L9.52982 10.7996L9.54811 10.9883L9.71839 11.057L10.0085 11.0932L9.88954 11.3875L10.0378 11.5681L9.97826 11.8074L10.4488 12.4016L10.6071 12.4947L10.6821 12.7024L10.5641 12.7412L10.5201 13.0554L10.2932 13.1142L10.2602 13.2387ZM9.17195 10.7832L8.96011 10.7139L8.95976 10.7139L9.17195 10.7834V10.7832ZM8.47694 10.7842L8.50249 10.6298L8.29293 10.4727L8.11355 10.4574L8.11897 10.0519L8.11845 10.052L8.11302 10.4574L8.2924 10.4727L8.50196 10.6298L8.47633 10.7843L8.47694 10.7842ZM7.98353 10.0672L7.9039 9.78547L7.90346 9.78565L7.983 10.0672H7.98353ZM7.65846 9.83867L7.53045 9.7503L7.44995 9.52359L7.44942 9.52376L7.52993 9.7503L7.65811 9.83876L7.65846 9.83867ZM7.24537 9.68152L7.0289 9.64285L6.70401 9.25085L6.70349 9.25094L7.02838 9.64285L7.24529 9.68161L7.24537 9.68152ZM11.0879 11.7135L11.0878 11.7135L11.1555 11.5943L11.1557 11.5944L11.0879 11.7135ZM11.3159 11.7009H11.3158L11.624 11.5338H11.6243L11.3159 11.7009ZM12.0243 11.5148H12.024L12.2511 11.1988L12.2512 11.1989L12.0243 11.5148ZM12.5002 11.3261L12.5001 11.326L12.6583 11.2015L12.6585 11.2016L12.5002 11.3261ZM12.9716 11.3315L12.9715 11.3314L13.1535 11.1545L13.1534 11.1548L12.9716 11.3315ZM11.1546 4.58649L11.0158 4.55499L11.0159 4.55508L11.1545 4.58658L11.1546 4.58649ZM11.0845 5.18796V5.18805L11.2433 5.1709V5.17081L11.0845 5.18796ZM11.5338 5.80204L11.5339 5.80212L11.6171 5.78585L11.6226 5.68557L11.7229 5.6847L11.6222 5.68557L11.6168 5.78585L11.5338 5.80204ZM11.7828 5.81193L11.7829 5.81201L11.9435 5.74989V5.74971L11.7828 5.81193ZM12.532 8.49861L12.1855 8.44445V8.44454L12.532 8.49861ZM11.9555 9.44554L11.7691 9.18951H11.7687L11.9554 9.44597L11.9555 9.44554ZM11.5668 9.21288L11.511 8.95562H11.5106L11.5664 9.21296L11.5668 9.21288ZM10.8125 9.26704L10.5572 9.14165L10.5573 9.14182L10.8122 9.26712L10.8125 9.26704ZM10.6135 9.50267L10.2553 9.4143V9.41448L10.6136 9.50285L10.6135 9.50267ZM10.2864 9.6733V9.67348L10.3519 9.64478V9.6446L10.2864 9.6733ZM10.2905 9.8658L9.75732 9.7972L9.75741 9.79729L10.2905 9.86589V9.8658ZM9.8366 10.1882L9.63832 10.1575L9.6385 10.1576L9.83651 10.1882H9.8366ZM9.79583 10.3895V10.3897L9.85856 10.3726V10.3725L9.79583 10.3895ZM9.9822 10.6964L9.89006 10.6173L9.8898 10.6173L9.98211 10.6967L9.9822 10.6964ZM17.2026 5.52668L17.3692 5.6784H17.369L17.2024 5.52668L17.2162 5.43008H17.2164L17.2026 5.52668ZM27.2035 9.94718L27.4 9.8931L27.2026 9.94718L27.1732 10.0022L27.1916 10.2578L27.3444 10.3941L27.3618 10.5576L27.2388 10.7212L27.2392 10.721L27.3628 10.5576L27.3454 10.3941L27.1916 10.2578L27.1742 10.0022L27.2035 9.94718ZM27.4049 9.89205H27.4039V9.76474L27.1797 9.65458L26.9554 9.85591L26.5481 9.93807L26.2709 9.64547L25.807 9.62754L25.8059 9.62561L26.2717 9.64373L26.5491 9.93633L26.9563 9.85408L27.1806 9.65274L27.4049 9.76203V9.89205ZM25.8178 9.86317L25.9285 9.8273L25.9294 9.82887L25.8168 9.86493L25.6758 10.0293L25.5994 10.4463L25.599 10.4465L25.6758 10.0275L25.8178 9.86317ZM26.756 11.4381L26.7559 11.438L26.8373 11.3487L26.8135 10.7581L26.8145 10.7577L26.8383 11.3478L26.756 11.4381ZM27.0626 10.8033L27.0621 10.803L27.1442 10.7652L27.0626 10.8033ZM29.7479 28.2846L30.2943 28.2432L30.6082 28.3776L30.4518 28.5448L30.1945 28.5258L30.1332 28.7271L29.7479 28.2846ZM33.7363 30.3879L33.4169 30.5179L33.7527 30.5866L34.3449 30.5893L33.7363 30.3879Z" fill="#F7D648"/>
</svg>
